# xmcd CD database file
#
# Track frame offsets:
#	150
#	20079
#	44112
#	67635
#	89251
#	115112
#	135775
#	156817
#	186544
#	215423
#
# Disc length: 3231 seconds
#
# Revision: 0
# Processed by: cddbd v1.5.2PL0 Copyright (c) Steve Scherf et al.
# Submitted via: jetAudio 7
#
DISCID=850c9d0a
DTITLE=Thu Hien - Thuong ve xu Nghe
DYEAR=1900
DGENRE=Country
TTITLE0=Thuong ve xu Nghe
TTITLE1=Ca dao em va toi
TTITLE2=Khuc hat song que
TTITLE3=Giua Mac Tu Khoa nghe cau ho Nghe Tinh
TTITLE4=Dem nghe hat do dua nho Bac
TTITLE5=Goi em chiec non bai tho
TTITLE6=Tieng hat song Lam
TTITLE7=Cam xuc tu cau ho dieu vi
TTITLE8=Tieng ho tren dat Nghe An
TTITLE9=Tu Lang Sen
EXTD=
EXTT0=
EXTT1=
EXTT2=
EXTT3=
EXTT4=
EXTT5=
EXTT6=
EXTT7=
EXTT8=
EXTT9=
PLAYORDER=
